/* XPM */
static char * qtdmm_16x16_xpm[] = {
"16 16 33 1",
" 	c None",
".	c #020205",
"+	c #CEC646",
"@	c #848B89",
"#	c #5A4F47",
"$	c #0C0E22",
"%	c #FEFE06",
"&	c #0E2CFE",
"*	c #5A161A",
"=	c #FEFE3E",
"-	c #E86278",
";	c #0202FE",
">	c #1A1F20",
",	c #FEFE4E",
"'	c #FE8282",
")	c #0202DE",
"!	c #2A36E2",
"~	c #B46C6E",
"{	c #C7D5AE",
"]	c #1C343B",
"^	c #C22E2E",
"/	c #969F96",
"(	c #F1FCF2",
"_	c #606161",
":	c #0216B2",
"<	c #A9A6A1",
"[	c #313130",
"}	c #7C86D2",
"|	c #3E433E",
"1	c #4A464A",
"2	c #707579",
"3	c #AFBAB2",
"4	c #3C3C3E",
"                ",
"   @@@@@@@@@@2  ",
"  [1[|[[4|||>#. ",
"  [4{[(3@{4/@1. ",
"  [[3.{3.@[@24. ",
"  [[343(3@>/24. ",
"  [4@1|[{(((<4. ",
"  [4@//@/@@/_|. ",
"  ]_*][4444412. ",
"  ]'-#2[>>$>[1. ",
"  >~^$$2/3%3&}. ",
"  >]]/<3@</};!. ",
"  $,<<{%(({{/<. ",
"  .=/(_.../!{<. ",
"  .=-_@>4>.)}<. ",
"  >+~_2[[[.:22$ "};
