/* XPM */
static char * qtdmm_48x48_xpm[] = {
"48 48 33 1",
" 	c None",
".	c #050506",
"+	c #FDF206",
"@	c #828285",
"#	c #656665",
"$	c #EF1010",
"%	c #535152",
"&	c #0319FE",
"*	c #3E3E41",
"=	c #DAD032",
"-	c #0D26EF",
";	c #9F1C1C",
">	c #2A2A2D",
",	c #CDC346",
"'	c #1E1D1D",
")	c #ACAAA1",
"!	c #BCBAAA",
"~	c #FE7474",
"{	c #D1C956",
"]	c #4050D7",
"^	c #141617",
"/	c #FE8888",
"(	c #192FDE",
"_	c #5A69CB",
":	c #959597",
"<	c #9B5053",
"[	c #777971",
"}	c #C4C3C2",
"|	c #C6434E",
"1	c #FEEEEE",
"2	c #4755CD",
"3	c #0F1211",
"4	c #C3D9C2",
"                                                ",
"                                                ",
"          ...............................       ",
"         '*******************************.      ",
"        .*@@@@@@@@@@@@@@@@@@@@@@@@@@@@@@[^.     ",
"       3################################%*^.    ",
"      .3[[%>''''''''''''''''''''''''''>*%*'.    ",
"      .3[[%..^^^^^^^^^^^^^^^^^^^^^^^^3.>%*'.    ",
"      .3[[%.444444444444444444444444443'%*'.    ",
"      .3[[%.44444444444444444444444444^'%*'.    ",
"      .3[[%.44>...44444.44.44>...44.44^'%*'.    ",
"      .3[[%.44444.44444.44344444.44.44^'%*'.    ",
"      .3[[%.44444.44444.44.44444.44.44^'%*'.    ",
"      .3[[%.44>.3.44444....44....44.44^'%*'.    ",
"      .3[[%.44444344444444.44.44444.44^'%*'.    ",
"      .3[[%.44444.44444444.44.44444.44^'%*'.    ",
"      .3[[%.44>...44.44444>44*...44>44^'%*'.    ",
"      .3[[%.44444444444444444444444444^'%*'.    ",
"      .3[[%.44444444444444444444444444^'%*'.    ",
"      .3[[%.44..4..4..4.44444444444444^'%*'.    ",
"      .3[[%.44..4..4..4.44444444444444^'%*'.    ",
"      .3[[%.44444444444444444444444444^'%*'.    ",
"      .3[[%.444444444444444444444444443'%*'.    ",
"      .3[[%..^^^^^^^^^^^^^^^^^^^^^^^^3.>%*'.    ",
"      .3[[%>>'''''''''''''''''''''''''>*%*'.    ",
"      .3[[%%%%##########################%*'.    ",
"      .3[[%$$$%#%%%%%%%%%%################>.    ",
"      .3[<|~|$;<#%%%%####%>'''''''''''''>%>.    ",
"      .3[|$1!$$;%%%%%%%.....33333333333.3*'.    ",
"      .3[|$11}$;%###.>...3[@@@@@@@@@@@@@[*^.    ",
"      .3[<|~//|<%>'.'..**%:)::!{):))@22@:%^.    ",
"      .3#[%$$$%..^...%))::::::=+):::]&&]@%^.    ",
"      ..%##%<.3..[@@@::::::::=+++,@(&&&&(*'.    ",
"      .3#.'>...*%:)::))))::)!,,,{!@&&&&&&*'.    ",
"      .3[....':):::::)}})::)!::::::(&&&&(*'.    ",
"      .3#@@@@@:::!)::::::::::::::)!:]&&]@%^.    ",
"      .3#){):::::)::,,,,!))))))::)})[22@:%^.    ",
"      .3#,+):::::::)++++=}}}}})::)!:::::@%^.    ",
"      .3#,+:)!:::!}}+++++}}444}!}):::::::%^.    ",
"      .3#,+!))::)}4}@[[[#####%:44:2:::))@%^.    ",
"      .3#,+})::)}}}:..........%!!_-[::}!@%^.    ",
"      .3#,+)::!}}4#............'(---_)4!@%^.    ",
"      .3#,+::)44}#[#..'''''''....&-&2)))@%^.    ",
"      .3#,+)@:)!:.[1*'*******3...3&&2::::%^.    ",
"      .3#,+)|$$;3.'#1@3*******^....&-(@):%^.    ",
"      ..#=+)|$$;..3*:%.'>*****>^...&&-:):%^.    ",
"      .3#,=:|$$;..'*33'^>*******3..--(@:@*'.    ",
"      >**%%%****>>***************>*********>    "};
