/* XPM */
static char * qtdmm_48x48_xpm[] = {
"48 48 716 2",
"  	c None",
". 	c #000000",
"+ 	c #232323",
"@ 	c #404040",
"# 	c #3E3E3E",
"$ 	c #393939",
"% 	c #080808",
"& 	c #070707",
"* 	c #444444",
"= 	c #898989",
"- 	c #848484",
"; 	c #838383",
"> 	c #8A8A8A",
", 	c #717171",
"' 	c #141414",
") 	c #0E0E0E",
"! 	c #636363",
"~ 	c #6D6D6D",
"{ 	c #5F5F5F",
"] 	c #656565",
"^ 	c #646464",
"/ 	c #5A5A5A",
"( 	c #3A3A3A",
"_ 	c #171717",
": 	c #0F0F0F",
"< 	c #777777",
"[ 	c #7A7A7A",
"} 	c #4F4F4F",
"| 	c #303030",
"1 	c #212121",
"2 	c #1D1C1D",
"3 	c #1E1C1E",
"4 	c #1E1D1E",
"5 	c #1F1E1F",
"6 	c #262626",
"7 	c #434343",
"8 	c #575757",
"9 	c #454545",
"0 	c #1B1B1B",
"a 	c #4B4B4B",
"b 	c #040404",
"c 	c #000200",
"d 	c #141714",
"e 	c #141814",
"f 	c #131613",
"g 	c #121512",
"h 	c #151815",
"i 	c #0E100E",
"j 	c #2A2A2A",
"k 	c #5B5B5B",
"l 	c #424242",
"m 	c #191919",
"n 	c #4A4A4A",
"o 	c #4D584E",
"p 	c #B3C9B4",
"q 	c #B4CAB5",
"r 	c #B3CAB4",
"s 	c #ADC3AE",
"t 	c #A7BCA8",
"u 	c #A8BDA9",
"v 	c #A9BFAA",
"w 	c #B2C9B3",
"x 	c #A9BEAA",
"y 	c #A9BEA9",
"z 	c #B2C8B2",
"A 	c #ADC2AE",
"B 	c #B9D0BA",
"C 	c #92A493",
"D 	c #232223",
"E 	c #4A494A",
"F 	c #677568",
"G 	c #CBE4CC",
"H 	c #6F7D70",
"I 	c #596459",
"J 	c #606C61",
"K 	c #657266",
"L 	c #9DB09E",
"M 	c #D2ECD3",
"N 	c #CDE7CE",
"O 	c #BFD7C0",
"P 	c #728073",
"Q 	c #9CB09D",
"R 	c #C5DEC6",
"S 	c #738274",
"T 	c #C5DDC6",
"U 	c #6E7C6F",
"V 	c #A3B7A4",
"W 	c #B8CFB9",
"X 	c #222022",
"Y 	c #667366",
"Z 	c #B6CCB7",
"` 	c #262B26",
" .	c #050505",
"..	c #090A09",
"+.	c #CCE5CD",
"@.	c #C2DBC3",
"#.	c #CDE6CE",
"$.	c #A5BAA6",
"%.	c #010201",
"&.	c #5C675C",
"*.	c #040504",
"=.	c #B6CDB7",
"-.	c #667266",
";.	c #B1C7B2",
">.	c #5A655A",
",.	c #222122",
"'.	c #5B675C",
").	c #C9E3CA",
"!.	c #BCD4BD",
"~.	c #9AAD9B",
"{.	c #080908",
"].	c #545E54",
"^.	c #CBE5CC",
"/.	c #CCE6CD",
"(.	c #A6BBA7",
"_.	c #0E0F0E",
":.	c #535D53",
"<.	c #CAE3CB",
"[.	c #606C60",
"}.	c #B2C8B3",
"|.	c #0C0E0C",
"1.	c #5F6B5F",
"2.	c #606D61",
"3.	c #C0D8C1",
"4.	c #6E7C6E",
"5.	c #525D53",
"6.	c #000100",
"7.	c #C2DAC3",
"8.	c #070807",
"9.	c #1D201D",
"0.	c #4D574E",
"a.	c #C1D9C2",
"b.	c #79887A",
"c.	c #687468",
"d.	c #505A50",
"e.	c #5F6B60",
"f.	c #0A0C0A",
"g.	c #C4DDC5",
"h.	c #ACC1AD",
"i.	c #2C322C",
"j.	c #6C796D",
"k.	c #0F110F",
"l.	c #0F100F",
"m.	c #79897A",
"n.	c #B0C6B1",
"o.	c #BCD3BD",
"p.	c #545F55",
"q.	c #C8E1C9",
"r.	c #BDD4BE",
"s.	c #90A291",
"t.	c #626E62",
"u.	c #0D0F0D",
"v.	c #4B554C",
"w.	c #B5CCB6",
"x.	c #C6DFC7",
"y.	c #616D61",
"z.	c #515B51",
"A.	c #BED5BF",
"B.	c #5D695E",
"C.	c #839383",
"D.	c #DAF6DB",
"E.	c #020202",
"F.	c #59645A",
"G.	c #1D211D",
"H.	c #ABC0AC",
"I.	c #1B1F1B",
"J.	c #5C685D",
"K.	c #AABFAA",
"L.	c #222622",
"M.	c #6C796C",
"N.	c #2E342E",
"O.	c #717F71",
"P.	c #B4CBB5",
"Q.	c #242824",
"R.	c #6D7B6E",
"S.	c #C9E3CB",
"T.	c #ACC2AD",
"U.	c #AAC0AB",
"V.	c #BDD5BE",
"W.	c #C1DAC2",
"X.	c #C8E0C9",
"Y.	c #AABFAB",
"Z.	c #BFD6C0",
"`.	c #B5CBB6",
" +	c #BED6BF",
".+	c #748375",
"++	c #909C90",
"@+	c #AFBDB0",
"#+	c #8A968A",
"$+	c #A4B0A5",
"%+	c #707E71",
"&+	c #8B988C",
"*+	c #A2AEA3",
"=+	c #646F64",
"-+	c #8B9D8B",
";+	c #C7E0C8",
">+	c #CAE4CB",
",+	c #D3EDD4",
"'+	c #050605",
")+	c #3D3A3D",
"!+	c #828182",
"~+	c #403F40",
"{+	c #828082",
"]+	c #505B50",
"^+	c #667467",
"/+	c #768576",
"(+	c #8F9C8F",
"_+	c #717F72",
":+	c #909E91",
"<+	c #AFBCAF",
"[+	c #707D71",
"}+	c #97AB98",
"|+	c #D9F4DA",
"1+	c #131614",
"2+	c #AFC6B0",
"3+	c #ABC2AC",
"4+	c #AFC5B0",
"5+	c #B3C9B3",
"6+	c #AEC4AF",
"7+	c #92A593",
"8+	c #0E110E",
"9+	c #131714",
"0+	c #131713",
"a+	c #777676",
"b+	c #505252",
"c+	c #293737",
"d+	c #18292A",
"e+	c #172325",
"f+	c #1F2021",
"g+	c #211F20",
"h+	c #201F20",
"i+	c #201E20",
"j+	c #212021",
"k+	c #282828",
"l+	c #464646",
"m+	c #585858",
"n+	c #181818",
"o+	c #717575",
"p+	c #585757",
"q+	c #6E5151",
"r+	c #755151",
"s+	c #6F5555",
"t+	c #5F5E5E",
"u+	c #5C5F5F",
"v+	c #5E5E5E",
"w+	c #1C1C1C",
"x+	c #717070",
"y+	c #657D7D",
"z+	c #5F5050",
"A+	c #D90707",
"B+	c #FF0000",
"C+	c #D91717",
"D+	c #635656",
"E+	c #4C6262",
"F+	c #5B5A5A",
"G+	c #606060",
"H+	c #5D5D5D",
"I+	c #292929",
"J+	c #0E0F0F",
"K+	c #6C7373",
"L+	c #985959",
"M+	c #BA3333",
"N+	c #FF7878",
"O+	c #FF3333",
"P+	c #BC2020",
"Q+	c #7D4747",
"R+	c #545C5C",
"S+	c #585A5A",
"T+	c #595959",
"U+	c #5C5C5C",
"V+	c #626262",
"W+	c #1F1F1F",
"X+	c #0D1010",
"Y+	c #667676",
"Z+	c #CD3333",
"`+	c #FF1616",
" @	c #FFFBFB",
".@	c #FEADAD",
"+@	c #FF0E0E",
"@@	c #B22727",
"#@	c #4F5F5F",
"$@	c #585B5B",
"%@	c #535353",
"&@	c #4C4C4C",
"*@	c #515151",
"=@	c #151515",
"-@	c #090909",
";@	c #0D0D0D",
">@	c #0C0C0E",
",@	c #0C0C0F",
"'@	c #0E0E0C",
")@	c #0F0E0C",
"!@	c #0B0B0A",
"~@	c #131313",
"{@	c #363636",
"]@	c #1D1D1D",
"^@	c #FF1414",
"/@	c #FFF0F0",
"(@	c #FEFFFF",
"_@	c #FFCECE",
":@	c #FF1111",
"<@	c #B21A1A",
"[@	c #5B5F5F",
"}@	c #010101",
"|@	c #121212",
"1@	c #737373",
"2@	c #8B8B8B",
"3@	c #838382",
"4@	c #7F8088",
"5@	c #7D7E8B",
"6@	c #828284",
"7@	c #828283",
"8@	c #878780",
"9@	c #8C8B7C",
"0@	c #8C8B84",
"a@	c #7A7A7B",
"b@	c #0E1010",
"c@	c #6E7575",
"d@	c #995A5A",
"e@	c #BA3131",
"f@	c #FF6F6F",
"g@	c #FF8C8C",
"h@	c #FF8080",
"i@	c #C13A3A",
"j@	c #864747",
"k@	c #535A5A",
"l@	c #292B2B",
"m@	c #343434",
"n@	c #474747",
"o@	c #505050",
"p@	c #959595",
"q@	c #A5A5A4",
"r@	c #9E9EA1",
"s@	c #9698AD",
"t@	c #BAB57A",
"u@	c #D0C85A",
"v@	c #A0A09E",
"w@	c #9899AA",
"x@	c #A2A19D",
"y@	c #ADAA96",
"z@	c #7F85B6",
"A@	c #4F5CD8",
"B@	c #858BBC",
"C@	c #A19F8B",
"D@	c #4C4B48",
"E@	c #151516",
"F@	c #6C6C6C",
"G@	c #637A7A",
"H@	c #615252",
"I@	c #D90808",
"J@	c #D80707",
"K@	c #574848",
"L@	c #415858",
"M@	c #0B0B0B",
"N@	c #565656",
"O@	c #A7A7A7",
"P@	c #A0A0A0",
"Q@	c #9F9F9F",
"R@	c #9E9E9E",
"S@	c #979797",
"T@	c #949496",
"U@	c #969695",
"V@	c #9C9B8D",
"W@	c #DCD132",
"X@	c #FFEF00",
"Y@	c #B2AD6F",
"Z@	c #989894",
"`@	c #959598",
" #	c #8E8F9C",
".#	c #3D4BD5",
"+#	c #000AFF",
"@#	c #4251DA",
"##	c #848591",
"$#	c #484849",
"%#	c #171715",
"&#	c #0A0A0A",
"*#	c #606464",
"=#	c #705252",
"-#	c #7B5454",
";#	c #644747",
">#	c #0E0C0C",
",#	c #121111",
"'#	c #828282",
")#	c #8C8C8C",
"!#	c #969696",
"~#	c #989898",
"{#	c #8E8F9D",
"]#	c #9F9D83",
"^#	c #EBDE1B",
"/#	c #FFF400",
"(#	c #CFC54B",
"_#	c #8184A9",
":#	c #2235E8",
"<#	c #0019FF",
"[#	c #0016FF",
"}#	c #061FFF",
"|#	c #192CDC",
"1#	c #393B53",
"2#	c #1E1C10",
"3#	c #4E4D4D",
"4#	c #1E2020",
"5#	c #192727",
"6#	c #152727",
"7#	c #1E2C2C",
"8#	c #404242",
"9#	c #434242",
"0#	c #929292",
"a#	c #A3A3A3",
"b#	c #A8A8A8",
"c#	c #B1B1B1",
"d#	c #B2B2B2",
"e#	c #949494",
"f#	c #A1A1AA",
"g#	c #B5B4A4",
"h#	c #CEC54F",
"i#	c #CFC640",
"j#	c #CCC349",
"k#	c #D4CA3E",
"l#	c #BDB662",
"m#	c #7B7FA7",
"n#	c #0018FF",
"o#	c #0009FF",
"p#	c #011AFE",
"q#	c #000EFF",
"r#	c #000FF4",
"s#	c #343757",
"t#	c #201E0F",
"u#	c #101010",
"v#	c #4E4F50",
"w#	c #050508",
"x#	c #0B0B0C",
"y#	c #1E1E1E",
"z#	c #8D8D8D",
"A#	c #9D9D9D",
"B#	c #999999",
"C#	c #929395",
"D#	c #AAAAAD",
"E#	c #C3C3C6",
"F#	c #ABABAC",
"G#	c #939392",
"H#	c #AEAEAD",
"I#	c #BDBDBF",
"J#	c #9697A3",
"K#	c #8D8E9C",
"L#	c #90919F",
"M#	c #8F909F",
"N#	c #9E9D98",
"O#	c #8C8EA6",
"P#	c #2437E7",
"Q#	c #0F0F0E",
"R#	c #6F6F6E",
"S#	c #86868E",
"T#	c #828281",
"U#	c #858585",
"V#	c #BFBFBF",
"W#	c #AFAEAE",
"X#	c #939394",
"Y#	c #90919D",
"Z#	c #9394A2",
"`#	c #9697A5",
" $	c #9697A6",
".$	c #95959C",
"+$	c #939393",
"@$	c #939396",
"#$	c #949597",
"$$	c #929396",
"%$	c #ADADAD",
"&$	c #BBBCBC",
"*$	c #9495A1",
"=$	c #3A49D2",
"-$	c #0E0E0F",
";$	c #6A6A71",
">$	c #B5B06D",
",$	c #D3CB5B",
"'$	c #A7A696",
")$	c #9B9CA3",
"!$	c #9C9C9C",
"~$	c #ACACAC",
"{$	c #9E9FA6",
"]$	c #989789",
"^$	c #C4BC54",
"/$	c #CDC345",
"($	c #C8BF47",
"_$	c #C9C042",
":$	c #BAB67B",
"<$	c #ABACB3",
"[$	c #ADADAE",
"}$	c #ABABAB",
"|$	c #AEAEAE",
"1$	c #919191",
"2$	c #909090",
"3$	c #B1B1B2",
"4$	c #C9C8C5",
"5$	c #AAA894",
"6$	c #7378A9",
"7$	c #4553CF",
"8$	c #7C81B2",
"9$	c #999782",
"0$	c #4B4A47",
"a$	c #0D0D10",
"b$	c #676876",
"c$	c #D1C739",
"d$	c #FFEE02",
"e$	c #A4A280",
"f$	c #9293A3",
"g$	c #9495A5",
"h$	c #A9A788",
"i$	c #FBEB0B",
"j$	c #FFFB00",
"k$	c #FFF600",
"l$	c #FFF800",
"m$	c #E8DF60",
"n$	c #C5C6D5",
"o$	c #C8C8CB",
"p$	c #C9C9C9",
"q$	c #CCCCCC",
"r$	c #989899",
"s$	c #B1B0AF",
"t$	c #BDBDBB",
"u$	c #9B9B9B",
"v$	c #989791",
"w$	c #9F9E8F",
"x$	c #9F9D8F",
"y$	c #A09F98",
"z$	c #8B8B8C",
"A$	c #161616",
"B$	c #CEC53D",
"C$	c #FAEA08",
"D$	c #9F9D7D",
"E$	c #A6A7B6",
"F$	c #8F8F8F",
"G$	c #B9B9B9",
"H$	c #BCBDCD",
"I$	c #C8C6A7",
"J$	c #FFF515",
"K$	c #FFFF00",
"L$	c #FFFD00",
"M$	c #EFE667",
"N$	c #CCCDDC",
"O$	c #CFCFD2",
"P$	c #D0D0D0",
"Q$	c #D1D1D1",
"R$	c #C7C7C7",
"S$	c #BEBEBE",
"T$	c #C0C0C1",
"U$	c #B2B1AA",
"V$	c #A19F93",
"W$	c #979796",
"X$	c #989794",
"Y$	c #959592",
"Z$	c #9B9B9A",
"`$	c #484848",
" %	c #CCC23C",
".%	c #FDED0E",
"+%	c #BBB999",
"@%	c #ADAEBD",
"#%	c #C3C3C3",
"$%	c #D4D4DC",
"%%	c #CAC9BA",
"&%	c #8A821A",
"*%	c #7A7100",
"=%	c #807700",
"-%	c #817800",
";%	c #716D31",
">%	c #606168",
",%	c #626263",
"'%	c #616161",
")%	c #9B9B9C",
"!%	c #DBDBD8",
"~%	c #DCDAC6",
"{%	c #8891C8",
"]%	c #4B5AC1",
"^%	c #9F9C8E",
"/%	c #989999",
"(%	c #A9A9A9",
"_%	c #CBC13B",
":%	c #FFF010",
"<%	c #CDCAAB",
"[%	c #C8C8C8",
"}%	c #C3C3C2",
"|%	c #929293",
"1%	c #070814",
"2%	c #51504E",
"3%	c #B9B9BA",
"4%	c #B9BBC9",
"5%	c #4960F2",
"6%	c #0020FD",
"7%	c #7078B0",
"8%	c #9E9D9C",
"9%	c #C4C4C4",
"0%	c #B7B7B7",
"a%	c #CDC43E",
"b%	c #FBEB0C",
"c%	c #AAA888",
"d%	c #9091A0",
"e%	c #9A9A9A",
"f%	c #DADADA",
"g%	c #6E6D6D",
"h%	c #0B0900",
"i%	c #191D36",
"j%	c #1935EB",
"k%	c #0A2DFF",
"l%	c #0020FF",
"m%	c #0828F9",
"n%	c #5261C0",
"o%	c #A4A297",
"p%	c #C6C5C3",
"q%	c #CEC43E",
"r%	c #F9E90A",
"s%	c #A29F7F",
"t%	c #87909F",
"u%	c #95A6A6",
"v%	c #BCCDCD",
"w%	c #D4DCDC",
"x%	c #C3C2C2",
"y%	c #6E6E6E",
"z%	c #6F6F6F",
"A%	c #222222",
"B%	c #000003",
"C%	c #00036A",
"D%	c #0017D3",
"E%	c #0023FF",
"F%	c #0015FF",
"G%	c #4A5AC8",
"H%	c #ABA78C",
"I%	c #AFAEA9",
"J%	c #A8A8A9",
"K%	c #FAEA0B",
"L%	c #A3A384",
"M%	c #938594",
"N%	c #A98888",
"O%	c #C8A7A7",
"P%	c #CABABA",
"Q%	c #929393",
"R%	c #EBEBEB",
"S%	c #3D3D3D",
"T%	c #3B3B3B",
"U%	c #414141",
"V%	c #373737",
"W%	c #000001",
"X%	c #000E66",
"Y%	c #001FF3",
"Z%	c #001CFF",
"`%	c #4155D4",
" &	c #8D8F9B",
".&	c #9B9B99",
"+&	c #F9EB0C",
"@&	c #9FAA8A",
"#&	c #BD4E5D",
"$&	c #FB0B0B",
"%&	c #FF1515",
"&&	c #8A1A1A",
"*&	c #061313",
"=&	c #E9E9E9",
"-&	c #111111",
";&	c #00083C",
">&	c #001EE5",
",&	c #0125FF",
"'&	c #233DE6",
")&	c #8689A0",
"!&	c #A4A296",
"~&	c #0A0A0D",
"{&	c #6A6B79",
"]&	c #D7CD3E",
"^&	c #FFF70A",
"/&	c #A4B291",
"(&	c #D04252",
"_&	c #7F0000",
":&	c #3F3F3F",
"<&	c #313131",
"[&	c #00000E",
"}&	c #001CE8",
"|&	c #0017FF",
"1&	c #0729FF",
"2&	c #878CAA",
"3&	c #ACAA9A",
"4&	c #494949",
"5&	c #121315",
"6&	c #62636F",
"7&	c #BCB33E",
"8&	c #E2D612",
"9&	c #929D81",
"0&	c #B34451",
"a&	c #EF0000",
"b&	c #F50505",
"c&	c #770707",
"d&	c #000606",
"e&	c #010404",
"f&	c #3C3C3C",
"g&	c #040200",
"h&	c #070B22",
"i&	c #0721CC",
"j&	c #0020FB",
"k&	c #1731DC",
"l&	c #7B7F96",
"m&	c #98968A",
"n&	c #1A1A1A",
"o&	c #353535",
"p&	c #3F4041",
"q&	c #4C4B3A",
"r&	c #514F35",
"s&	c #464844",
"t&	c #4B3B3D",
"u&	c #533232",
"v&	c #543333",
"w&	c #423333",
"x&	c #313333",
"y&	c #323333",
"z&	c #333231",
"A&	c #333437",
"B&	c #33374E",
"C&	c #323654",
"D&	c #353950",
"E&	c #434347",
"F&	c #474745",
"G&	c #333333",
"                                                                                                ",
"                                                                                                ",
"                    . . . . . . . . . . . . . . . . . . . . . . . . . . . . . . .               ",
"                  + @ # # # # # # # # # # # # # # # # # # # # # # # # # # # # @ $ %             ",
"                & * = - ; ; ; ; ; ; ; ; ; ; ; ; ; ; ; ; ; ; ; ; ; ; ; ; ; ; ; > , ' .           ",
"              ) ! ~ { ! ] ^ ^ ^ ^ ^ ^ ^ ^ ^ ^ ^ ^ ^ ^ ^ ^ ^ ^ ^ ^ ^ ^ ^ ^ ^ ^ ^ / ( _ .         ",
"            . : < [ } | 1 2 3 4 4 4 4 4 4 4 4 4 4 4 4 4 4 4 4 4 4 4 4 4 2 5 6 7 8 9 0 .         ",
"            . : , [ a b c d d e d d f g g g g d f g d f g d e d d f g d h i . j k l m .         ",
"            . : , [ n . o p q q r q s t u t v w s x w s y z q r q A x w B C i D k l m .         ",
"            . : , [ E . F G H I J K L M N M O P Q R S L T U I J K V R S V W h X k l m .         ",
"            . : , [ n . Y Z `  .... I +.@.#.$.%.&.p *.I =.`  .... -.;.b >.q d ,.k l m .         ",
"            . : , [ n . '.).Z !.~.{.].^.@./.(...K !._.:.<.Z !.~.{.[.}.|.1.r d ,.k l m .         ",
"            . : , [ n . 2.3.4.J 5.6.>.G 7.#.(.8.9.0.. [.a.b.c.d.. e.w i [.p d ,.k l m .         ",
"            . : , [ n . Y Z ` b f.. 1.^.g.+.h.i.{.{.. j.w i . k.l.m.n.i [.p d ,.k l m .         ",
"            . : , [ n . '.).Z o.~.f.p.#.#.q.r.h.;.s...t.}.u.v.!.w.x.t |.[.p d ,.k l m .         ",
"            . : , [ n . 2.3.4.y.z.. >.A.B.C.q.+.D.n.E.F.}...G.K &.L H.E.F.q e ,.k l m .         ",
"            . : , [ n . Y Z ` %.|.i b.p I.J.^.g.+.K.L.M.Z N.8...%.O.P.Q.R.}.d ,.k l m .         ",
"            . : , [ n . '.S.=.T.U.}.V.W.p B R G X.!.Y.P.Z.T.(.(.$.`. +H.O x g ,.k l m .         ",
"            . : , [ n . [.3..+++@+P #+$+%+&+*+=+-+;+/.x.a.>+#./.#.R a.^.,+t g ,.k l m .         ",
"            . : , [ n . F ;.'+)+!+. ~+!+. ~+{+. ]++.@.3.3.3.3.3.3.3.3.3./.u g ,.k l m .         ",
"            . : , [ n . F ;.'+)+!+. ~+!+. ~+{+. ]++.@.3.3.3.3.3.3.3.3.3./.u g ,.k l m .         ",
"            . : , [ E . ^+^./+(+@+_+:+@+_+:+<+[+}+M N +.+.+.+.+.+.+.+.+.|+w 1+X k l m .         ",
"            . : , [ n . o r P.2+3+w 4+3+w 4+3+5+6+t u u u u u u u u u u w 7+8+D k l m .         ",
"            . : , [ a b c d d 9+f d 0+f d 0+f d f g g g g g g g g g g g 1+8+. j k l m .         ",
"            . : , a+b+c+d+e+f+g+h+h+h+h+h+h+h+h+h+h+h+h+h+h+h+h+h+h+h+h+i+j+k+l+m+@ n+.         ",
"            . : , o+p+q+r+s+t+u+v+v+v+v+v+v+v+v+v+v+{ { { { { { { { { { { { { v+8 9 w+.         ",
"            . : x+y+z+A+B+C+D+E+F+/ / / / / / / / k { G+{ { { { { { { { { { { { v+H+I+.         ",
"            . J+K+L+M+N+O+B+P+Q+R+S+T+T+T+U+{ { V+8 j W++ + + + + + + + + + + 1 I+a 6 .         ",
"            . X+Y+Z+`+ @.@+@B+@@#@$@/ / k %@&@&@*@9 =@-@;@;@>@,@;@;@;@;@'@)@)@!@~@{@]@.         ",
"            . X+Y+Z+^@/@(@_@:@<@#@[@v+{ ! | . }@. |@1@2@; 3@4@5@6@3@; 7@8@9@9@0@a@l+_ .         ",
"            . b@c@d@e@f@g@h@i@j@k@l@W++ 1 m@n@l+@ o@p@q@r@s@t@u@v@w@x@y@z@A@A@B@C@D@E@.         ",
"            . ) F@G@H@I@B+J@K@L@9 =@-@M@b N@O@P@Q@R@S@T@U@V@W@X@Y@Z@`@ #.#+#+#@###$#%#.         ",
"            . &#} *#t+=#-#;#>#. ,#1@2@; '#)#!#p@S@~#!#{#]#^#/#/#X@(#_#:#<#[#[#}#|#1#2#.         ",
"            . ;@G+3#4#5#6#7#8#9#o@0#a#Q@R@b#c#d#a#e#e#f#g#h#i#j#k#l#m#n#o#p#p#q#r#s#t#.         ",
"            . u#< v#w#x#b y#z#b#R@A#B#p@C#D#E#E#F#G#0#H#I#J#K#L#M#N#O#P#<#[#[#}#|#1#2#.         ",
"            . Q#R#S#5@6@T#U#p@!#A#V#W#X#Y#Z#`# $.$G#+$S@B#@$@$#$$$%$&$*$=$+#+#@###$#%#.         ",
"            . -$;$>$,$'$)$!$S@e#B#~${$]$^$/$($_$:$<$[$}$}$|$P@1$2$3$4$5$6$7$7$8$9$0$E@.         ",
"            . a$b$c$d$e$f$!$S@p@!#~#g$h$i$j$k$l$m$n$o$p$p$q$d#r$B#s$t$u$v$w$x$y$z$$#A$.         ",
"            . a$b$B$C$D$E$V#!$F$~#G$H$I$J$K$L$K$M$N$O$P$P$Q$R$S$T$U$V$W$!#X$Y$Z$)#`$A$.         ",
"            . a$b$ %.%+%@%~$p@A#c##%$%%%&%*%=%-%;%>%,%V+'%k )%!%~%{%]%T@^%/%F#(%> `$A$.         ",
"            . a$b$_%:%<%E$1$~#d#p$[%}%|%1%. . . . . . . . . 2%3%4%5%6%7%+$8%9%0%= `$A$.         ",
"            . a$b$a%b%c%d%e%G$#%[%f%g%. . . . . . . . . . . h%i%j%k%l%m%n%o%p%0%= `$A$.         ",
"            . a$b$q%r%s%t%u%v%w%x%y%1@z%. . A%y#]@]@]@W+m }@. B%C%D%E%F%G%H%I%J%> `$A$.         ",
"            . a$b$q%K%L%M%N%O%P%Q%. < R%S%W+T%S%# S%S%U%V%) W%. . X%Y%Z%`% &X#.&)#`$A$.         ",
"            . a$b$q%+&@&#&$&%&&&*&. y#z%=&2@-&{@# T%T%T%( V%_ . . . ;&>&,&'&)&!&)#`$A$.         ",
"            . ~&{&]&^&/&(&B+B+_&. . : :&+$m+&#W+<&T%( ( T%:&| _ W%. [&}&|&1&2&3&1$4&' .         ",
"            . 5&6&7&8&9&0&a&b&c&d&e&+ V%u#: m =@k+f&( ( ( ( :&V%) g&h&i&j&k&l&m&'#n@n&b         ",
"            <&o&p&q&r&s&t&u&v&w&x&y&V%$ m@m@o&o&V%( ( ( ( ( T%( m@z&A&B&C&D&E&F&* f&{@G&        "};
