/* XPM */
static char * qtdmm_16x16_xpm[] = {
"16 16 170 2",
"  	c None",
". 	c #838283",
"+ 	c #8B898B",
"@ 	c #8A888A",
"# 	c #898789",
"$ 	c #898689",
"% 	c #8F8D8F",
"& 	c #6C6B6C",
"* 	c #2F2F2F",
"= 	c #484548",
"- 	c #2A3329",
"; 	c #394138",
"> 	c #2F352F",
", 	c #2B322C",
"' 	c #303830",
") 	c #374037",
"! 	c #3D463D",
"~ 	c #181E18",
"{ 	c #514F51",
"] 	c #000000",
"^ 	c #313131",
"/ 	c #393439",
"( 	c #BAD4BB",
"_ 	c #282E29",
": 	c #E6FFE8",
"< 	c #A8BCA8",
"[ 	c #809282",
"} 	c #BBD2BA",
"| 	c #333A35",
"1 	c #91A292",
"2 	c #80927F",
"3 	c #494449",
"4 	c #323232",
"5 	c #322D32",
"6 	c #AFC6AE",
"7 	c #020303",
"8 	c #C6DDC7",
"9 	c #A1B5A2",
"0 	c #778679",
"a 	c #292D28",
"b 	c #748375",
"c 	c #647565",
"d 	c #443E44",
"e 	c #353035",
"f 	c #AFC9AF",
"g 	c #343C34",
"h 	c #A3BBA4",
"i 	c #E1FEE2",
"j 	c #A6BCA7",
"k 	c #809082",
"l 	c #1F221E",
"m 	c #8D9F8E",
"n 	c #6D7E6E",
"o 	c #413B41",
"p 	c #383438",
"q 	c #7C907E",
"r 	c #4B464B",
"s 	c #434043",
"t 	c #302830",
"u 	c #BDD8BF",
"v 	c #F1FFF2",
"w 	c #F4FFF5",
"x 	c #FDFFFE",
"y 	c #99AE98",
"z 	c #423C42",
"A 	c #2D3030",
"B 	c #383E41",
"C 	c #6C8974",
"D 	c #819A87",
"E 	c #869A86",
"F 	c #7C8E7C",
"G 	c #899E88",
"H 	c #839684",
"I 	c #7F9280",
"J 	c #8A9E8C",
"K 	c #4A5A4C",
"L 	c #454145",
"M 	c #1D2C2C",
"N 	c #696263",
"O 	c #5A1518",
"P 	c #1C383C",
"Q 	c #363539",
"R 	c #3A353A",
"S 	c #3D363D",
"T 	c #3E393D",
"U 	c #3D383C",
"V 	c #413D41",
"W 	c #484549",
"X 	c #717072",
"Y 	c #020202",
"Z 	c #0D2D2D",
"` 	c #FF8383",
" .	c #FF5B5B",
"..	c #6F5454",
"+.	c #686C6C",
"@.	c #2D2D2D",
"#.	c #1D1D1F",
"$.	c #141527",
"%.	c #0F1029",
"&.	c #201F1B",
"*.	c #332E0A",
"=.	c #4C4A2E",
"-.	c #010000",
";.	c #0D2322",
">.	c #AE6060",
",.	c #C12D2D",
"'.	c #021919",
").	c #0B0F0E",
"!.	c #797978",
"~.	c #959598",
"{.	c #C2BFAC",
"].	c #FFFF0A",
"^.	c #BCBDB6",
"/.	c #071FFF",
"(.	c #7B83C8",
"_.	c #181F2A",
":.	c #223748",
"<.	c #1C3641",
"[.	c #9AA3AA",
"}.	c #A7A8C8",
"|.	c #B6B7E3",
"1.	c #8687A4",
"2.	c #A2A2A6",
"3.	c #A39E66",
"4.	c #7E84BB",
"5.	c #0000FF",
"6.	c #2937E0",
"7.	c #0C0E30",
"8.	c #FFFF4D",
"9.	c #A6A7C7",
"0.	c #A3A3AA",
"a.	c #E1DB7B",
"b.	c #FFFF00",
"c.	c #FFFFE8",
"d.	c #F8F9FF",
"e.	c #C8C5B6",
"f.	c #DCD59F",
"g.	c #999B96",
"h.	c #AAA782",
"i.	c #000032",
"j.	c #FFFF3F",
"k.	c #919CCB",
"l.	c #E3ECF3",
"m.	c #5B5C69",
"n.	c #9C9DA4",
"o.	c #173AFF",
"p.	c #CDC8AC",
"q.	c #A8A69B",
"r.	c #020433",
"s.	c #FFFF3D",
"t.	c #D36997",
"u.	c #606464",
"v.	c #8D9197",
"w.	c #222228",
"x.	c #38383D",
"y.	c #201F1D",
"z.	c #0000DF",
"A.	c #7D8BDB",
"B.	c #A8A38F",
"C.	c #27272D",
"D.	c #CEC644",
"E.	c #BB767B",
"F.	c #706464",
"G.	c #717171",
"H.	c #282828",
"I.	c #03030F",
"J.	c #0015B3",
"K.	c #6974B9",
"L.	c #7D7C7B",
"M.	c #0B0B0B",
"                                ",
"      . + @ # # # $ $ + % &     ",
"    * = - ; > , ' ) ! ! ~ { ]   ",
"    ^ / ( _ : < [ } | 1 2 3 ]   ",
"    4 5 6 7 8 9 ] 0 a b c d ]   ",
"    4 e f g h i j k l m n o ]   ",
"    4 p q r s t u v w x y z ]   ",
"    A B C D E F G H I J K L ]   ",
"    M N O P Q R S T U V W X Y   ",
"    Z `  ...+.@.#.$.%.&.*.=.-.  ",
"    ;.>.,.'.).!.~.{.].^./.(.]   ",
"    _.:.<.[.}.|.1.2.3.4.5.6.]   ",
"    7.8.9.0.a.b.c.d.e.f.g.h.]   ",
"    i.j.k.l.m.] ] ] n.o.p.q.]   ",
"    r.s.t.u.v.w.x.y.] z.A.B.]   ",
"    C.D.E.F.G.* 4 H.I.J.K.L.M.  "};
