/* XPM */
static char * eight_tiny_xpm[] = {
"8 14 2 1",
" 	c None",
".	c #000000",
" ...... ",
". .... .",
"..    ..",
"..    ..",
"..    ..",
"..    ..",
". .... .",
". .... .",
"..    ..",
"..    ..",
"..    ..",
"..    ..",
". .... .",
" ...... "};
