/* XPM */
static char * nine_xpm[] = {
"38 64 2 1",
" 	c None",
".	c #000000",
"                                      ",
"                                      ",
"      ...................... ...      ",
"    ........................ .....    ",
"    ........................ ......   ",
"   . ....................... ......   ",
"  ... ..................... ........  ",
"  .... .................... ........  ",
"  ..... ................... ........  ",
"  ...... .................. ........  ",
"  .......                   ........  ",
"  ........                  ........  ",
"  ........                  ........  ",
"  ........                  ........  ",
"  ........                  ........  ",
"  ........                  ........  ",
"  ........                  ........  ",
"  ........                  ........  ",
"  ........                  ........  ",
"  ........                  ........  ",
"  ........                  ........  ",
"  ........                  ........  ",
"  ........                  ........  ",
"  ........                  ........  ",
"  ........                  ........  ",
"  ........                  ........  ",
"  ........                  ........  ",
"  ........                  ........  ",
"  ....... .................. .......  ",
"  ...... .................... ......  ",
"  ..... ...................... .....  ",
"   ... ........................ ...   ",
"      ..........................      ",
"       ........................ ...   ",
"        ...................... .....  ",
"         .................... ......  ",
"          .................. .......  ",
"                            ........  ",
"                            ........  ",
"                            ........  ",
"                            ........  ",
"                            ........  ",
"                            ........  ",
"                            ........  ",
"                            ........  ",
"                            ........  ",
"                            ........  ",
"                            ........  ",
"                            ........  ",
"                            ........  ",
"                            ........  ",
"                            ........  ",
"                            ........  ",
"                            ........  ",
"           ................ ........  ",
"          ................. ........  ",
"         ................... .......  ",
"        .................... .......  ",
"       ...................... .....   ",
"      ....................... .....   ",
"     ......................... ...    ",
"      ........................ .      ",
"                                      ",
"                                      "};
