/* XPM */
static char * two_xpm[] = {
"38 64 2 1",
" 	c None",
".	c #000000",
"                                      ",
"                                      ",
"      ...................... ...      ",
"    ........................ .....    ",
"    ........................ ......   ",
"     ....................... ......   ",
"      ..................... ........  ",
"       .................... ........  ",
"        ................... ........  ",
"         .................. ........  ",
"                            ........  ",
"                            ........  ",
"                            ........  ",
"                            ........  ",
"                            ........  ",
"                            ........  ",
"                            ........  ",
"                            ........  ",
"                            ........  ",
"                            ........  ",
"                            ........  ",
"                            ........  ",
"                            ........  ",
"                            ........  ",
"                            ........  ",
"                            ........  ",
"                            ........  ",
"                            ........  ",
"          .................. .......  ",
"         .................... ......  ",
"        ...................... .....  ",
"       ........................ ...   ",
"      ..........................      ",
"   ... ........................       ",
"  ..... ......................        ",
"  ...... ....................         ",
"  ....... ..................          ",
"  ........                            ",
"  ........                            ",
"  ........                            ",
"  ........                            ",
"  ........                            ",
"  ........                            ",
"  ........                            ",
"  ........                            ",
"  ........                            ",
"  ........                            ",
"  ........                            ",
"  ........                            ",
"  ........                            ",
"  ........                            ",
"  ........                            ",
"  ........                            ",
"  ........                            ",
"  ........ ................           ",
"  ....... .................           ",
"  ...... ...................          ",
"  ..... ....................          ",
"   ... ......................         ",
"   .. .......................         ",
"     .........................        ",
"      ........................        ",
"                                      ",
"                                      "};
