/* XPM */
static char * A_xpm[] = {
"10 16 2 1",
" 	c None",
".	c #000000",
"    ..    ",
"   ....   ",
"  ..  ..  ",
"  ..  ..  ",
" ..    .. ",
" ..    .. ",
"..      ..",
"..      ..",
"..........",
"..........",
"..      ..",
"..      ..",
"..      ..",
"..      ..",
"..      ..",
"..      .."};
