/* XPM */
static char * hi_xpm[] = {
"18 9 2 1",
" 	c None",
".	c #000000",
"..............    ",
"...............   ",
".. ... ..   ....  ",
".. ... ... ...... ",
"..     ... .......",
".. ... ... ...... ",
".. ... ..   ....  ",
"...............   ",
"..............    "};
